<svg width="78" height="60" viewBox="0 0 78 60" fill="none" xmlns="http://www.w3.org/2000/svg">
<g clip-path="url(#clip0)">
<path d="M3.25 34.875V10.0644C3.25 6.71929 5.8617 4.01912 9.2001 4.01912H68.7999C72.1383 4.01912 74.8527 6.73896 74.8527 10.084V42.2844C74.8527 45.6295 72.1383 47.875 68.7999 47.875H40.625V51.125H68.7999C73.8738 51.125 78 47.3685 78 42.2844V10.084C78 4.99998 73.8738 0.865509 68.7999 0.865509H9.2001C4.1262 0.865509 0 4.99998 0 10.084V34.875H3.25Z" fill="#0066FF"/>
<path d="M41.3712 28.9097C41.3712 30.4338 42.5997 31.6687 44.1129 31.6687H56.9049C58.4181 31.6687 59.6466 30.4338 59.6466 28.9097V16.0335C59.6466 14.5094 58.4181 13.2746 56.9049 13.2746H44.1129C42.5997 13.2746 41.3712 14.5094 41.3712 16.0335V20.1797H36.2037C34.0431 20.1797 32.1282 21.5709 31.4457 23.6381L23.5833 47.4523C23.5209 47.6399 23.3493 47.7689 23.1543 47.7689H18.2754V43.6188C18.2754 42.0947 17.0469 40.8598 15.5337 40.8598H2.7417C1.2285 40.8598 0 42.0947 0 43.6188V56.4911C0 58.0151 1.2285 59.25 2.7417 59.25H15.5337C17.0469 59.25 18.2754 58.0151 18.2754 56.4911V52.3527H23.1582C25.3188 52.3527 27.2337 50.9615 27.9162 48.8943L35.7786 25.084C35.841 24.8964 36.0126 24.7675 36.2076 24.7675H41.3751V28.9097H41.3712ZM13.7085 54.6544H4.5708V45.4593H13.7085V54.6544Z" fill="#0066FF"/>
</g>
<defs>
<clipPath id="clip0">
<rect y="0.75" width="78" height="58.383" fill="white"/>
</clipPath>
</defs>
</svg>
