<svg width="75" height="52" viewBox="0 0 75 52" fill="none" xmlns="http://www.w3.org/2000/svg">
<path fill-rule="evenodd" clip-rule="evenodd" d="M43.935 27.568C41.6682 27.568 39.8311 29.2645 39.8311 31.356L39.8338 48.0098C39.8338 50.1013 41.6718 51.7971 43.9376 51.7971C46.2044 51.7971 48.0415 50.1013 48.0415 48.009L48.0388 31.356C48.0388 29.2637 46.2017 27.568 43.935 27.568ZM56.8391 12.3614C54.5724 12.3622 52.7353 14.058 52.7353 16.1503L52.738 47.8996C52.738 49.9911 54.576 51.6868 56.8418 51.6868C59.1085 51.6868 60.9456 49.9902 60.9456 47.8988L60.9439 16.1495C60.9439 14.0571 59.1068 12.3614 56.8391 12.3614ZM31.0308 21.8036C28.7641 21.8036 26.927 23.4993 26.927 25.5925L26.9297 48.0098C26.9297 50.1013 28.7677 51.7971 31.0344 51.7971C33.3002 51.7971 35.1373 50.1013 35.1373 48.009L35.1355 25.5908C35.1355 23.4985 33.2975 21.8028 31.0308 21.8036ZM18.1275 35.4888H18.1266C15.8599 35.4897 14.0228 37.1854 14.0237 39.2785L14.0264 48.0107C14.0264 50.1022 15.8635 51.7971 18.1293 51.7971H18.1302C20.3969 51.7971 22.234 50.1013 22.2331 48.0082L22.2304 39.2761C22.2304 37.1846 20.3933 35.4888 18.1275 35.4888ZM74.9693 8.16194V36.6711C74.9693 41.1726 71.0028 44.8331 66.1262 44.8331H64.6144V42.0422H66.1262C69.335 42.0422 71.9449 39.6331 71.9449 36.6711V8.16194C71.9449 5.19995 69.335 2.79003 66.1262 2.79003H8.84225C5.63426 2.79003 3.02437 5.19995 3.02437 8.16194V36.6711C3.02437 39.6331 5.63426 42.0422 8.84225 42.0422H10.3549V44.8331H8.84225C3.96653 44.8331 0 41.1726 0 36.6711V8.16194C0 3.66053 3.96653 0 8.84225 0H66.1262C71.0028 0 74.9693 3.66053 74.9693 8.16194Z" fill="black"/>
</svg>
