<svg width="75" height="52" viewBox="0 0 75 52" fill="none" xmlns="http://www.w3.org/2000/svg">
<path fill-rule="evenodd" clip-rule="evenodd" d="M66.1531 0.133545H8.84598C3.96806 0.133545 0 3.78747 0 8.27922V36.7313C0 41.2231 3.96806 44.877 8.84598 44.877H10.3583V42.0918H8.84598C5.63673 42.0918 3.02551 39.6865 3.02551 36.7313V8.27922C3.02551 5.32322 5.63673 2.91872 8.84598 2.91872H66.1531C69.3624 2.91872 71.9745 5.32322 71.9745 8.27922V36.7313C71.9745 39.6865 69.3624 42.0918 66.1531 42.0918H64.6399V44.877H66.1531C71.0311 44.877 75 41.2231 75 36.7313V8.27922C75 3.78747 71.0311 0.133545 66.1531 0.133545ZM49.4594 31.8405L54.4795 27.2178C55.4 26.3702 55.4 24.9833 54.4795 24.1358L49.4594 19.513C48.5389 18.6655 47.0328 18.6655 46.1123 19.513L41.0913 24.1358C40.1709 24.9833 40.1709 26.3702 41.0913 27.2178L46.1123 31.8405C47.0328 32.6873 48.5389 32.6873 49.4594 31.8405ZM33.5792 33.7286L28.5582 29.1059C27.6377 28.2583 26.1316 28.2583 25.2111 29.1059L20.191 33.7286C19.2705 34.5762 19.2705 35.9631 20.191 36.8115L21.4736 37.9918L25.2111 41.4334C26.1316 42.281 27.6377 42.281 28.5582 41.4334L32.2966 37.9918L33.5792 36.8115C34.4997 35.9631 34.4997 34.5762 33.5792 33.7286ZM42.4057 38.3529L28.5582 51.1025C27.6377 51.9501 26.1316 51.9501 25.2111 51.1025L11.3644 38.3529L9.7311 36.8496C8.81064 36.0012 8.81064 34.6143 9.7311 33.7667L11.3644 32.2627L25.2111 19.513C26.1316 18.6655 27.6377 18.6655 28.5582 19.513L42.4057 32.2627L44.0391 33.7667C44.9595 34.6143 44.9595 36.0012 44.0391 36.8496L42.4057 38.3529ZM64.9385 33.7286L59.9175 29.1059C58.9979 28.2583 57.4918 28.2583 56.5713 29.1059L51.5512 33.7286C50.6307 34.5762 50.6307 35.9639 51.5512 36.8107L56.5713 41.4334C57.4918 42.281 58.9979 42.281 59.9175 41.4334L64.9385 36.8107C65.859 35.9639 65.859 34.5762 64.9385 33.7286ZM54.4795 43.3361C55.4 44.1837 55.4 45.5706 54.4795 46.4182L49.4594 51.0417C48.5389 51.8885 47.0328 51.8885 46.1123 51.0417L41.0913 46.4182C40.1709 45.5706 40.1709 44.1837 41.0913 43.3361L46.1123 38.7134C47.0328 37.8658 48.5389 37.8658 49.4594 38.7134L54.4795 43.3361Z" fill="#742774"/>
</svg>
